<?xml version="1.0" encoding="UTF-8"?>
<svg version="1.1" xmlns="http://www.w3.org/2000/svg" width="96" height="96">
<path d="M0 0 C31.68 0 63.36 0 96 0 C96 31.68 96 63.36 96 96 C64.32 96 32.64 96 0 96 C0 64.32 0 32.64 0 0 Z " fill="#FDFDFE" transform="translate(0,0)"/>
<path d="M0 0 C0.66 0 1.32 0 2 0 C2.07427649 4.48401485 2.12866111 8.96770174 2.16479492 13.45214844 C2.17986151 14.9769515 2.20031876 16.50171136 2.22631836 18.02636719 C2.26279706 20.22081166 2.27974714 22.41468216 2.29296875 24.609375 C2.3086792 25.92905273 2.32438965 27.24873047 2.34057617 28.60839844 C1.98076728 32.19152758 1.33527567 33.37882718 -1 36 C-1 36.66 -1 37.32 -1 38 C-1.66 38 -2.32 38 -3 38 C-3 38.99 -3 39.98 -3 41 C-4.32 40.67 -5.64 40.34 -7 40 C-7 39.34 -7 38.68 -7 38 C-12.94 38 -18.88 38 -25 38 C-25 38.99 -25 39.98 -25 41 C-25.99 41 -26.98 41 -28 41 C-28 40.01 -28 39.02 -28 38 C-28.66 38 -29.32 38 -30 38 C-30.28875 37.401875 -30.5775 36.80375 -30.875 36.1875 C-32.04742026 33.80672208 -32.04742026 33.80672208 -34 31 C-34.78918561 26.54200494 -34.86417168 22.44967902 -34 18 C-29.13586083 11.35043562 -19.72484963 7.75089297 -11.8046875 6.4921875 C-9.73008758 6.21724052 -7.6502372 5.97805325 -5.56640625 5.78515625 C-2.75667203 5.22068451 -2.75667203 5.22068451 -1.27734375 2.43359375 C-0.85582031 1.63050781 -0.43429688 0.82742187 0 0 Z " fill="#DE9B16" transform="translate(58,37)"/>
<path d="M0 0 C0 0.66 0 1.32 0 2 C0.66 2 1.32 2 2 2 C4.56687367 5.8503105 3.83288724 7.58569763 3 12 C2.46632812 12.15855469 1.93265625 12.31710938 1.3828125 12.48046875 C-9.44665119 15.87170219 -20.69403622 20.58420794 -26.5 30.9375 C-28.34390078 35.19328885 -28.59468622 38.39118177 -28 43 C-26.06153476 46.54271234 -23.86381373 49.20183243 -21 52 C-27.38140039 50.3503863 -32.69500869 48.17552972 -37 43 C-39.72990449 37.50342463 -39.86469852 32.00697644 -39 26 C-37.4941134 22.52199145 -35.46857519 19.85601973 -33 17 C-32.52820313 16.39671875 -32.05640625 15.7934375 -31.5703125 15.171875 C-24.66937625 7.23401051 -10.54132279 -0.62007781 0 0 Z " fill="#286FC9" transform="translate(46,31)"/>
<path d="M0 0 C6.70757685 0 10.21873189 3.15882007 15.25390625 7.3828125 C17.93237445 9.30460571 17.93237445 9.30460571 21.21484375 8.8046875 C23.92586595 8.11264083 23.92586595 8.11264083 26 7 C31.53846154 6.76923077 31.53846154 6.76923077 34 8 C33.7734375 9.87109375 33.7734375 9.87109375 33 12 C31.0390625 13.16015625 31.0390625 13.16015625 28.625 14.0625 C25.38274161 15.29286841 23.13205333 16.2169836 21 19 C19.67524747 21.97097834 18.47969836 24.95034587 17.33789062 27.99414062 C15.67782669 32.15087065 15.21944146 32.89027927 11 35 C11 30.05 11 25.1 11 20 C2.5269422 21.58910235 2.5269422 21.58910235 -3.73046875 26.64453125 C-4.35888672 27.81048828 -4.35888672 27.81048828 -5 29 C-5.99 29 -6.98 29 -8 29 C-8.12375 27.88625 -8.2475 26.7725 -8.375 25.625 C-8.6465813 21.96896323 -8.6465813 21.96896323 -11 20 C-10.625 17.875 -10.625 17.875 -10 16 C-8.72125 16.226875 -7.4425 16.45375 -6.125 16.6875 C-0.60792302 17.33656788 3.8601851 15.89926355 9 14 C8.60167969 13.40832031 8.20335938 12.81664062 7.79296875 12.20703125 C5.09974702 8.19013364 2.42960803 4.18432495 0 0 Z " fill="#2E73C9" transform="translate(59,13)"/>
<path d="M0 0 C3.97915159 -0.02886984 7.95827653 -0.04675406 11.9375 -0.0625 C13.07380859 -0.07087891 14.21011719 -0.07925781 15.38085938 -0.08789062 C16.46044922 -0.09111328 17.54003906 -0.09433594 18.65234375 -0.09765625 C20.15269165 -0.10551147 20.15269165 -0.10551147 21.68334961 -0.11352539 C24 0 24 0 25 1 C25.19316713 3.02825491 25.38325788 5.05723921 25.5234375 7.08984375 C25.87245461 9.4010461 25.87245461 9.4010461 29 11 C28.67 11.99 28.34 12.98 28 14 C26.96552734 13.83951172 26.96552734 13.83951172 25.91015625 13.67578125 C19.92573269 12.91233627 15.61625814 13.01574231 10 15.2421875 C8 16 8 16 4.6875 16.5 C1.66634307 17.06207571 0.36431438 18.1085485 -2 20 C-4.25 20.6875 -4.25 20.6875 -6 21 C-6.48979592 13.65306122 -6.48979592 13.65306122 -4.125 10.5 C-2 9 -2 9 0 9 C0 6.03 0 3.06 0 0 Z " fill="#E09D1D" transform="translate(30,16)"/>
<path d="M0 0 C0 6.93 0 13.86 0 21 C-0.99 21 -1.98 21 -3 21 C-3 14.73 -3 8.46 -3 2 C-3.99 2 -4.98 2 -6 2 C-6 8.27 -6 14.54 -6 21 C-6.99 21.33 -7.98 21.66 -9 22 C-9 16.06 -9 10.12 -9 4 C-9.99 3.67 -10.98 3.34 -12 3 C-10.75336669 2.49166409 -9.50250613 1.99368855 -8.25 1.5 C-7.55390625 1.2215625 -6.8578125 0.943125 -6.140625 0.65625 C-4 0 -4 0 0 0 Z " fill="#F5EDDE" transform="translate(47,44)"/>
<path d="M0 0 C8.91 0 17.82 0 27 0 C27.33 0.99 27.66 1.98 28 3 C27.34 3 26.68 3 26 3 C26 3.99 26 4.98 26 6 C24.68 5.67 23.36 5.34 22 5 C22 4.34 22 3.68 22 3 C16.06 3 10.12 3 4 3 C4 3.99 4 4.98 4 6 C3.01 6 2.02 6 1 6 C1 5.01 1 4.02 1 3 C0.34 3 -0.32 3 -1 3 C-0.67 2.01 -0.34 1.02 0 0 Z " fill="#ECC071" transform="translate(29,72)"/>
<path d="M0 0 C0 1.65 0 3.3 0 5 C-6.27 5 -12.54 5 -19 5 C-19 3.35 -19 1.7 -19 0 C-12.42150508 -0.95494281 -6.58183362 -0.8931507 0 0 Z " fill="#FDFBF7" transform="translate(52,20)"/>
<path d="M0 0 C7.59 0 15.18 0 23 0 C23 2.64 23 5.28 23 8 C22.67 8 22.34 8 22 8 C22 6.35 22 4.7 22 3 C21.01 3.495 21.01 3.495 20 4 C18.5490058 4.01599436 17.09691493 3.9658149 15.6484375 3.87890625 C14.79765625 3.83056641 13.946875 3.78222656 13.0703125 3.73242188 C12.18085937 3.67634766 11.29140625 3.62027344 10.375 3.5625 C9.4778125 3.51029297 8.580625 3.45808594 7.65625 3.40429688 C5.43715988 3.2744565 3.21850129 3.13948661 1 3 C0.67 3.66 0.34 4.32 0 5 C0 3.35 0 1.7 0 0 Z " fill="#DF980F" transform="translate(31,16)"/>
<path d="M0 0 C1.485 0.99 1.485 0.99 3 2 C3.1875 5.625 3.1875 5.625 3 9 C6.19713358 8.31143065 6.19713358 8.31143065 7.375 5.5 C7.91125 4.675 8.4475 3.85 9 3 C10.65 2.67 12.3 2.34 14 2 C13.67 12.56 13.34 23.12 13 34 C12.67 34 12.34 34 12 34 C12 24.1 12 14.2 12 4 C8.96731398 6.83656989 8.96731398 6.83656989 7 10 C3.375 10.6875 3.375 10.6875 0 11 C0.29296875 9.01432292 0.5859375 7.02864583 0.87890625 5.04296875 C1.13904799 2.7974658 1.13904799 2.7974658 0 0 Z " fill="#D6CBB3" transform="translate(48,33)"/>
<path d="M0 0 C0.99 0 1.98 0 3 0 C3 6.93 3 13.86 3 21 C2.01 20.67 1.02 20.34 0 20 C0 13.4 0 6.8 0 0 Z " fill="#FBF5E8" transform="translate(50,45)"/>
<path d="M0 0 C-2.97 -0.33 -5.94 -0.66 -9 -1 C-9.33 -0.01 -9.66 0.98 -10 2 C-10.66 2 -11.32 2 -12 2 C-12 1.34 -12 0.68 -12 0 C-19.58088102 2.20279077 -26.89010353 4.5460968 -34 8 C-34 7.34 -34 6.68 -34 6 C-31.69 4.68 -29.38 3.36 -27 2 C-27 1.67 -27 1.34 -27 1 C-26.43152344 0.87882812 -25.86304688 0.75765625 -25.27734375 0.6328125 C-21.56785698 -0.17225141 -17.98799115 -1.00393393 -14.375 -2.1875 C-8.8130453 -3.52648909 -5.051235 -2.5256175 0 0 Z " fill="#D0D3D3" transform="translate(58,31)"/>
<path d="M0 0 C0 5.61 0 11.22 0 17 C-0.99 17.33 -1.98 17.66 -3 18 C-3.04898437 17.00097656 -3.09796875 16.00195312 -3.1484375 14.97265625 C-3.22320313 13.68230469 -3.29796875 12.39195313 -3.375 11.0625 C-3.44460937 9.77472656 -3.51421875 8.48695312 -3.5859375 7.16015625 C-3.72257812 6.11730469 -3.85921875 5.07445312 -4 4 C-4.66 3.67 -5.32 3.34 -6 3 C-2.25 0 -2.25 0 0 0 Z " fill="#F4ECDC" transform="translate(35,48)"/>
<path d="M0 0 C13.86 0.495 13.86 0.495 28 1 C27.67 2.32 27.34 3.64 27 5 C25.68 4.67 24.36 4.34 23 4 C23 3.34 23 2.68 23 2 C17.06 2 11.12 2 5 2 C5 2.99 5 3.98 5 5 C4.01 5 3.02 5 2 5 C2 4.01 2 3.02 2 2 C1.34 2 0.68 2 0 2 C0 1.34 0 0.68 0 0 Z " fill="#DF9A18" transform="translate(28,73)"/>
</svg>
